<mxfile host="app.diagrams.net" modified="2023-09-15T22:52:28.938Z" agent="Mozilla/5.0 (Windows NT 10.0; Win64; x64) AppleWebKit/537.36 (KHTML, like Gecko) Chrome/116.0.0.0 Safari/537.36" etag="wvSOg6_jmg4eciKYG77H" version="21.7.5" type="google">
  <diagram name="Page-1" id="929967ad-93f9-6ef4-fab6-5d389245f69c">
    <mxGraphModel grid="1" page="1" gridSize="10" guides="1" tooltips="1" connect="1" arrows="1" fold="1" pageScale="1.5" pageWidth="700" pageHeight="1000" background="none" math="0" shadow="0">
      <root>
        <mxCell id="0" style=";html=1;" />
        <mxCell id="1" style=";html=1;" parent="0" />
        <mxCell id="viflOaudkgxWpKeFV0BQ-1" value="&amp;lt;&amp;lt;External&amp;gt;&amp;gt;&lt;br&gt;:UserWebBrowser" style="shape=cube;whiteSpace=wrap;html=1;boundedLbl=1;backgroundOutline=1;darkOpacity=0.05;darkOpacity2=0.1;size=10;" vertex="1" parent="1">
          <mxGeometry x="190" y="230" width="120" height="80" as="geometry" />
        </mxCell>
        <mxCell id="viflOaudkgxWpKeFV0BQ-2" value="&amp;lt;&amp;lt;device&amp;gt;&amp;gt;&lt;br&gt;:AWS_Server&lt;br&gt;{OS=Amazon Linux}&lt;br&gt;&lt;br&gt;&lt;br&gt;&lt;br&gt;&lt;br&gt;&lt;br&gt;&lt;br&gt;&lt;br&gt;&lt;br&gt;&lt;br&gt;&lt;br&gt;&lt;br&gt;" style="shape=cube;whiteSpace=wrap;html=1;boundedLbl=1;backgroundOutline=1;darkOpacity=0.05;darkOpacity2=0.1;size=10;" vertex="1" parent="1">
          <mxGeometry x="390" y="230" width="180" height="250" as="geometry" />
        </mxCell>
        <mxCell id="viflOaudkgxWpKeFV0BQ-3" value="&amp;lt;&amp;lt;Execution Environment&amp;gt;&amp;gt;&lt;br&gt;:Gunicorn&lt;br&gt;&lt;br&gt;&lt;br&gt;&lt;br&gt;&lt;br&gt;&lt;br&gt;" style="shape=cube;whiteSpace=wrap;html=1;boundedLbl=1;backgroundOutline=1;darkOpacity=0.05;darkOpacity2=0.1;size=10;" vertex="1" parent="1">
          <mxGeometry x="410" y="320" width="150" height="150" as="geometry" />
        </mxCell>
        <mxCell id="viflOaudkgxWpKeFV0BQ-5" value="Flask App" style="shape=cube;whiteSpace=wrap;html=1;boundedLbl=1;backgroundOutline=1;darkOpacity=0.05;darkOpacity2=0.1;size=10;" vertex="1" parent="1">
          <mxGeometry x="440" y="400" width="100" height="60" as="geometry" />
        </mxCell>
        <mxCell id="viflOaudkgxWpKeFV0BQ-6" value="&amp;lt;&amp;lt;database&amp;gt;&amp;gt;&lt;br&gt;:Y_RDB&lt;br&gt;{Vendor=mysql}" style="shape=cylinder3;whiteSpace=wrap;html=1;boundedLbl=1;backgroundOutline=1;size=15;" vertex="1" parent="1">
          <mxGeometry x="660" y="230" width="90" height="120" as="geometry" />
        </mxCell>
        <mxCell id="viflOaudkgxWpKeFV0BQ-7" value="" style="endArrow=none;html=1;rounded=0;entryX=0;entryY=0.2;entryDx=0;entryDy=0;entryPerimeter=0;" edge="1" parent="1" target="viflOaudkgxWpKeFV0BQ-2">
          <mxGeometry width="50" height="50" relative="1" as="geometry">
            <mxPoint x="310" y="280" as="sourcePoint" />
            <mxPoint x="360" y="230" as="targetPoint" />
          </mxGeometry>
        </mxCell>
        <mxCell id="viflOaudkgxWpKeFV0BQ-8" value="&amp;lt;&amp;lt;HTTPS&amp;gt;&amp;gt;" style="text;html=1;strokeColor=none;fillColor=none;align=center;verticalAlign=middle;whiteSpace=wrap;rounded=0;" vertex="1" parent="1">
          <mxGeometry x="320" y="255" width="60" height="30" as="geometry" />
        </mxCell>
        <mxCell id="viflOaudkgxWpKeFV0BQ-9" value="&amp;lt;&amp;lt;TCP/IP&amp;gt;&amp;gt;" style="text;html=1;strokeColor=none;fillColor=none;align=center;verticalAlign=middle;whiteSpace=wrap;rounded=0;" vertex="1" parent="1">
          <mxGeometry x="580" y="250" width="60" height="30" as="geometry" />
        </mxCell>
        <mxCell id="viflOaudkgxWpKeFV0BQ-10" value="" style="endArrow=none;html=1;rounded=0;entryX=-0.021;entryY=0.413;entryDx=0;entryDy=0;entryPerimeter=0;exitX=1.001;exitY=0.198;exitDx=0;exitDy=0;exitPerimeter=0;" edge="1" parent="1" source="viflOaudkgxWpKeFV0BQ-2" target="viflOaudkgxWpKeFV0BQ-6">
          <mxGeometry width="50" height="50" relative="1" as="geometry">
            <mxPoint x="440" y="400" as="sourcePoint" />
            <mxPoint x="490" y="350" as="targetPoint" />
          </mxGeometry>
        </mxCell>
      </root>
    </mxGraphModel>
  </diagram>
</mxfile>
